<svg xmlns="http://www.w3.org/2000/svg" fill="none" viewBox="0 0 507 445">
  <g id="Found_Logo">
    <path id="type-white" fill="#fff" d="M17.536 429.64c-2.645 0-5.099-.619-7.36-1.856-2.219-1.28-4.01-3.072-5.376-5.376-1.323-2.347-1.984-5.077-1.984-8.192 0-4.651 1.301-8.363 3.904-11.136 2.603-2.816 6.123-4.224 10.56-4.224 2.475 0 4.736.619 6.784 1.856 2.048 1.195 3.435 2.645 4.16 4.352l-.32-4.992V381.96h6.784V429h-6.592l-.128-5.184c-.725 1.536-2.048 2.901-3.968 4.096-1.92 1.152-4.075 1.728-6.464 1.728Zm1.152-5.824c2.432 0 4.48-.832 6.144-2.496 1.664-1.707 2.496-3.925 2.496-6.656v-.448c0-1.835-.384-3.477-1.152-4.928-.768-1.451-1.813-2.581-3.136-3.392a8.167 8.167 0 0 0-4.352-1.216c-2.73 0-4.843.896-6.336 2.688-1.493 1.749-2.24 4.032-2.24 6.848 0 2.859.725 5.184 2.176 6.976 1.493 1.749 3.627 2.624 6.4 2.624Zm38.865 5.824c-3.03 0-5.718-.683-8.064-2.048-2.347-1.365-4.16-3.221-5.44-5.568-1.28-2.347-1.92-4.949-1.92-7.808 0-2.816.618-5.397 1.855-7.744 1.28-2.347 3.094-4.203 5.44-5.568 2.347-1.365 5.056-2.048 8.129-2.048 3.072 0 5.76.683 8.064 2.048 2.346 1.365 4.138 3.221 5.376 5.568 1.28 2.347 1.92 4.928 1.92 7.744 0 2.859-.64 5.461-1.92 7.808-1.28 2.347-3.094 4.203-5.44 5.568-2.304 1.365-4.971 2.048-8 2.048Zm.192-5.632c2.474 0 4.416-.917 5.824-2.752 1.45-1.835 2.175-4.139 2.175-6.912 0-2.773-.767-5.099-2.303-6.976-1.537-1.92-3.563-2.88-6.08-2.88-2.432 0-4.395.939-5.889 2.816-1.45 1.877-2.175 4.224-2.175 7.04 0 2.731.789 5.035 2.367 6.912 1.58 1.835 3.606 2.752 6.08 2.752ZM80.87 381.96h6.848V429H80.87v-47.04Zm30.821 62.4a23.88 23.88 0 0 1-6.464-.896c-2.091-.597-3.584-1.152-4.48-1.664l1.536-6.4c2.816 1.835 5.888 2.752 9.216 2.752 2.56 0 4.715-.619 6.464-1.856 1.749-1.237 2.645-3.648 2.688-7.232v-5.248c-.896 1.664-2.347 3.051-4.352 4.16-2.005 1.109-4.224 1.664-6.656 1.664-2.56 0-4.907-.619-7.04-1.856-2.133-1.28-3.819-3.093-5.056-5.44-1.237-2.347-1.856-5.077-1.856-8.192 0-2.987.576-5.632 1.728-7.936 1.195-2.347 2.88-4.16 5.056-5.44 2.176-1.28 4.715-1.92 7.616-1.92 1.707 0 3.307.299 4.8.896 1.493.597 2.752 1.344 3.776 2.24 1.067.853 1.771 1.707 2.112 2.56l.128-4.928h6.528v29.184c0 4.992-1.28 8.832-3.84 11.52-2.56 2.688-6.528 4.032-11.904 4.032Zm-.128-20.544c2.432 0 4.48-.832 6.144-2.496 1.664-1.707 2.496-3.925 2.496-6.656v-.448c0-1.835-.384-3.477-1.152-4.928-.768-1.451-1.813-2.581-3.136-3.392a8.167 8.167 0 0 0-4.352-1.216c-2.731 0-4.843.896-6.336 2.688-1.493 1.749-2.24 4.032-2.24 6.848 0 2.859.725 5.184 2.176 6.976 1.493 1.749 3.627 2.624 6.4 2.624Zm37.723 5.824c-2.645 0-5.099-.619-7.36-1.856-2.219-1.28-4.011-3.072-5.376-5.376-1.323-2.347-1.984-5.077-1.984-8.192 0-3.072.576-5.76 1.728-8.064 1.195-2.304 2.88-4.096 5.056-5.376 2.176-1.28 4.736-1.92 7.68-1.92 1.707 0 3.307.299 4.8.896 1.493.597 2.752 1.344 3.776 2.24 1.024.853 1.707 1.707 2.048 2.56l.128-4.928h6.592V429h-6.528l-.128-5.184c-.725 1.536-2.048 2.901-3.968 4.096-1.92 1.152-4.075 1.728-6.464 1.728Zm1.152-5.76c2.432 0 4.48-.832 6.144-2.496 1.664-1.707 2.496-3.925 2.496-6.656v-.448c0-1.835-.384-3.477-1.152-4.928-.768-1.451-1.813-2.581-3.136-3.392a8.167 8.167 0 0 0-4.352-1.216c-2.731 0-4.843.896-6.336 2.688-1.493 1.749-2.24 4.032-2.24 6.848 0 2.859.725 5.184 2.176 6.976 1.493 1.749 3.627 2.624 6.4 2.624Zm25.231-24.256h6.784l.064 5.376c.811-1.792 2.091-3.264 3.84-4.416 1.749-1.152 3.797-1.728 6.144-1.728 3.029 0 5.355.64 6.976 1.92 1.621 1.237 2.709 2.987 3.264 5.248.555 2.261.832 5.205.832 8.832V429h-6.912v-13.952c0-3.712-.363-6.379-1.088-8-.725-1.664-2.219-2.496-4.48-2.496-1.28 0-2.581.405-3.904 1.216-1.323.768-2.432 1.899-3.328 3.392-.853 1.493-1.28 3.243-1.28 5.248V429h-6.912v-29.376Zm37.325 0h7.168V429h-7.168v-29.376Zm3.52-5.504c-1.323 0-2.432-.448-3.328-1.344-.896-.896-1.344-2.005-1.344-3.328 0-1.195.448-2.219 1.344-3.072.896-.853 2.005-1.28 3.328-1.28 1.28 0 2.368.427 3.264 1.28.896.853 1.344 1.877 1.344 3.072 0 1.323-.448 2.432-1.344 3.328-.854.896-1.942 1.344-3.264 1.344Zm23.394 35.52c-4.054 0-6.848-1.195-8.384-3.584-1.494-2.389-2.24-5.717-2.24-9.984v-16.448h6.912v14.72c0 2.432.128 4.331.384 5.696.298 1.323.853 2.304 1.664 2.944.853.64 2.112.96 3.776.96 1.194 0 2.346-.341 3.456-1.024a7.918 7.918 0 0 0 2.688-2.752 7.388 7.388 0 0 0 1.088-3.904v-16.64h6.848V429h-5.632l-.768-4.288c-1.067 1.664-2.411 2.901-4.032 3.712-1.579.811-3.499 1.216-5.76 1.216Zm39.082 0c-2.901 0-5.525-.619-7.872-1.856-2.304-1.28-4.139-3.093-5.504-5.44-1.365-2.389-2.048-5.184-2.048-8.384 0-3.029.619-5.675 1.856-7.936 1.28-2.304 3.051-4.075 5.312-5.312 2.304-1.237 4.949-1.856 7.936-1.856 2.261 0 4.203.299 5.824.896 1.664.555 2.965 1.259 3.904 2.112l-3.072 5.568c-1.792-1.792-3.819-2.688-6.08-2.688-2.731 0-4.821.832-6.272 2.496-1.408 1.664-2.112 3.883-2.112 6.656 0 3.157.725 5.611 2.176 7.36 1.493 1.749 3.563 2.624 6.208 2.624 1.323 0 2.603-.192 3.84-.576 1.28-.384 2.261-.832 2.944-1.344l2.496 4.864c-.939.725-2.261 1.387-3.968 1.984-1.664.555-3.52.832-5.568.832Zm20.853 0c-1.28 0-2.368-.427-3.264-1.28-.896-.896-1.344-1.984-1.344-3.264 0-1.323.426-2.411 1.28-3.264.896-.896 2.005-1.344 3.328-1.344 1.322 0 2.41.448 3.264 1.344.896.853 1.344 1.941 1.344 3.264 0 1.28-.448 2.368-1.344 3.264-.854.853-1.942 1.28-3.264 1.28Zm25.631 0c-2.646 0-5.099-.619-7.36-1.856-2.219-1.28-4.011-3.072-5.376-5.376-1.323-2.347-1.984-5.077-1.984-8.192 0-4.651 1.301-8.363 3.904-11.136 2.602-2.816 6.122-4.224 10.56-4.224 2.474 0 4.736.619 6.784 1.856 2.048 1.195 3.434 2.645 4.16 4.352l-.32-4.992V381.96h6.784V429h-6.592l-.128-5.184c-.726 1.536-2.048 2.901-3.968 4.096-1.92 1.152-4.075 1.728-6.464 1.728Zm1.152-5.824c2.432 0 4.48-.832 6.144-2.496 1.664-1.707 2.496-3.925 2.496-6.656v-.448c0-1.835-.384-3.477-1.152-4.928-.768-1.451-1.814-2.581-3.136-3.392a8.17 8.17 0 0 0-4.352-1.216c-2.731 0-4.843.896-6.336 2.688-1.494 1.749-2.24 4.032-2.24 6.848 0 2.859.725 5.184 2.176 6.976 1.493 1.749 3.626 2.624 6.4 2.624Zm39.056 5.824c-3.499 0-6.421-.683-8.768-2.048-2.347-1.408-4.075-3.264-5.184-5.568-1.109-2.347-1.664-4.907-1.664-7.68 0-3.115.64-5.845 1.92-8.192 1.323-2.347 3.136-4.139 5.44-5.376 2.304-1.28 4.907-1.92 7.808-1.92 4.523 0 7.872 1.259 10.048 3.776 2.219 2.475 3.328 5.973 3.328 10.496 0 1.152-.064 2.347-.192 3.584h-21.12c.469 2.603 1.387 4.48 2.752 5.632 1.408 1.152 3.349 1.728 5.824 1.728 2.048 0 3.733-.171 5.056-.512a16.187 16.187 0 0 0 3.648-1.408l2.112 4.928c-1.067.683-2.517 1.28-4.352 1.792-1.835.512-4.053.768-6.656.768Zm6.208-17.728c.043-2.645-.533-4.501-1.728-5.568-1.195-1.109-2.901-1.664-5.12-1.664-4.48 0-7.061 2.411-7.744 7.232h14.592Zm24.079 17.728c-2.048 0-4.182-.256-6.4-.768-2.176-.555-3.734-1.195-4.672-1.92l2.304-5.44c2.56 1.792 5.482 2.688 8.768 2.688 3.285 0 4.928-.96 4.928-2.88 0-.853-.342-1.515-1.024-1.984-.683-.469-1.899-1.024-3.648-1.664l-2.432-.896c-2.56-1.024-4.587-2.24-6.08-3.648-1.494-1.451-2.24-3.349-2.24-5.696 0-2.688 1.045-4.779 3.136-6.272 2.133-1.536 4.97-2.304 8.512-2.304 1.749 0 3.456.192 5.12.576 1.706.384 3.008.875 3.904 1.472l-2.496 5.504c-.555-.555-1.451-1.024-2.688-1.408-1.195-.427-2.539-.64-4.032-.64-3.03 0-4.544.917-4.544 2.752 0 1.024.405 1.813 1.216 2.368.81.512 2.133 1.088 3.968 1.728.17.043.832.277 1.984.704 2.73 1.067 4.757 2.283 6.08 3.648 1.322 1.365 1.984 3.115 1.984 5.248 0 2.901-1.11 5.099-3.328 6.592-2.176 1.493-4.95 2.24-8.32 2.24Zm19.337-30.016h7.168V429h-7.168v-29.376Zm3.52-5.504c-1.323 0-2.432-.448-3.328-1.344-.896-.896-1.344-2.005-1.344-3.328 0-1.195.448-2.219 1.344-3.072.896-.853 2.005-1.28 3.328-1.28 1.28 0 2.368.427 3.264 1.28.896.853 1.344 1.877 1.344 3.072 0 1.323-.448 2.432-1.344 3.328-.853.896-1.941 1.344-3.264 1.344Zm27.49 50.24a23.88 23.88 0 0 1-6.464-.896c-2.091-.597-3.584-1.152-4.48-1.664l1.536-6.4c2.816 1.835 5.888 2.752 9.216 2.752 2.56 0 4.715-.619 6.464-1.856 1.749-1.237 2.645-3.648 2.688-7.232v-5.248c-.896 1.664-2.347 3.051-4.352 4.16-2.005 1.109-4.224 1.664-6.656 1.664-2.56 0-4.907-.619-7.04-1.856-2.133-1.28-3.819-3.093-5.056-5.44-1.237-2.347-1.856-5.077-1.856-8.192 0-2.987.576-5.632 1.728-7.936 1.195-2.347 2.88-4.16 5.056-5.44 2.176-1.28 4.715-1.92 7.616-1.92 1.707 0 3.307.299 4.8.896 1.493.597 2.752 1.344 3.776 2.24 1.067.853 1.771 1.707 2.112 2.56l.128-4.928h6.528v29.184c0 4.992-1.28 8.832-3.84 11.52-2.56 2.688-6.528 4.032-11.904 4.032Zm-.128-20.544c2.432 0 4.48-.832 6.144-2.496 1.664-1.707 2.496-3.925 2.496-6.656v-.448c0-1.835-.384-3.477-1.152-4.928-.768-1.451-1.813-2.581-3.136-3.392a8.167 8.167 0 0 0-4.352-1.216c-2.731 0-4.843.896-6.336 2.688-1.493 1.749-2.24 4.032-2.24 6.848 0 2.859.725 5.184 2.176 6.976 1.493 1.749 3.627 2.624 6.4 2.624Zm24.731-24.192h6.784l.064 5.376c.811-1.792 2.091-3.264 3.84-4.416 1.749-1.152 3.797-1.728 6.144-1.728 3.029 0 5.355.64 6.976 1.92 1.621 1.237 2.709 2.987 3.264 5.248.555 2.261.832 5.205.832 8.832V429h-6.912v-13.952c0-3.712-.363-6.379-1.088-8-.725-1.664-2.219-2.496-4.48-2.496-1.28 0-2.581.405-3.904 1.216-1.323.768-2.432 1.899-3.328 3.392-.853 1.493-1.28 3.243-1.28 5.248V429h-6.912v-29.376Z"/>
    <path id="m-white" fill="#fff" d="M95 0v320l39-.5v-252l153.5 89c14.8 9.2 17.5 24.833 17 31.5v34.5c0 26.8-4 36.833-6 38.5-13.2 21.6-50.833 24-68 22.5v-127l-39.5-22v185h13.5c13 .5 3.6 0 24 0S269 318 277 317c24-2.4 40-14.5 47-21 15-12.5 19-35.167 18.5-46v-47.5c.4-34.4-2.833-48.333-4.5-51-1.2-13.6-29.167-30-43-36.5l81.5-47v252H413V0L255 92.5 95 0Z"/>
    <path id="type-green" fill="#489277" d="M17.536 429.64c-2.645 0-5.099-.619-7.36-1.856-2.219-1.28-4.01-3.072-5.376-5.376-1.323-2.347-1.984-5.077-1.984-8.192 0-4.651 1.301-8.363 3.904-11.136 2.603-2.816 6.123-4.224 10.56-4.224 2.475 0 4.736.619 6.784 1.856 2.048 1.195 3.435 2.645 4.16 4.352l-.32-4.992V381.96h6.784V429h-6.592l-.128-5.184c-.725 1.536-2.048 2.901-3.968 4.096-1.92 1.152-4.075 1.728-6.464 1.728Zm1.152-5.824c2.432 0 4.48-.832 6.144-2.496 1.664-1.707 2.496-3.925 2.496-6.656v-.448c0-1.835-.384-3.477-1.152-4.928-.768-1.451-1.813-2.581-3.136-3.392a8.167 8.167 0 0 0-4.352-1.216c-2.73 0-4.843.896-6.336 2.688-1.493 1.749-2.24 4.032-2.24 6.848 0 2.859.725 5.184 2.176 6.976 1.493 1.749 3.627 2.624 6.4 2.624Zm38.865 5.824c-3.03 0-5.718-.683-8.064-2.048-2.347-1.365-4.16-3.221-5.44-5.568-1.28-2.347-1.92-4.949-1.92-7.808 0-2.816.618-5.397 1.855-7.744 1.28-2.347 3.094-4.203 5.44-5.568 2.347-1.365 5.056-2.048 8.129-2.048 3.072 0 5.76.683 8.064 2.048 2.346 1.365 4.138 3.221 5.376 5.568 1.28 2.347 1.92 4.928 1.92 7.744 0 2.859-.64 5.461-1.92 7.808-1.28 2.347-3.094 4.203-5.44 5.568-2.304 1.365-4.971 2.048-8 2.048Zm.192-5.632c2.474 0 4.416-.917 5.824-2.752 1.45-1.835 2.175-4.139 2.175-6.912 0-2.773-.767-5.099-2.303-6.976-1.537-1.92-3.563-2.88-6.08-2.88-2.432 0-4.395.939-5.889 2.816-1.45 1.877-2.175 4.224-2.175 7.04 0 2.731.789 5.035 2.367 6.912 1.58 1.835 3.606 2.752 6.08 2.752ZM80.87 381.96h6.848V429H80.87v-47.04Zm30.821 62.4a23.88 23.88 0 0 1-6.464-.896c-2.091-.597-3.584-1.152-4.48-1.664l1.536-6.4c2.816 1.835 5.888 2.752 9.216 2.752 2.56 0 4.715-.619 6.464-1.856 1.749-1.237 2.645-3.648 2.688-7.232v-5.248c-.896 1.664-2.347 3.051-4.352 4.16-2.005 1.109-4.224 1.664-6.656 1.664-2.56 0-4.907-.619-7.04-1.856-2.133-1.28-3.819-3.093-5.056-5.44-1.237-2.347-1.856-5.077-1.856-8.192 0-2.987.576-5.632 1.728-7.936 1.195-2.347 2.88-4.16 5.056-5.44 2.176-1.28 4.715-1.92 7.616-1.92 1.707 0 3.307.299 4.8.896 1.493.597 2.752 1.344 3.776 2.24 1.067.853 1.771 1.707 2.112 2.56l.128-4.928h6.528v29.184c0 4.992-1.28 8.832-3.84 11.52-2.56 2.688-6.528 4.032-11.904 4.032Zm-.128-20.544c2.432 0 4.48-.832 6.144-2.496 1.664-1.707 2.496-3.925 2.496-6.656v-.448c0-1.835-.384-3.477-1.152-4.928-.768-1.451-1.813-2.581-3.136-3.392a8.167 8.167 0 0 0-4.352-1.216c-2.731 0-4.843.896-6.336 2.688-1.493 1.749-2.24 4.032-2.24 6.848 0 2.859.725 5.184 2.176 6.976 1.493 1.749 3.627 2.624 6.4 2.624Zm37.723 5.824c-2.645 0-5.099-.619-7.36-1.856-2.219-1.28-4.011-3.072-5.376-5.376-1.323-2.347-1.984-5.077-1.984-8.192 0-3.072.576-5.76 1.728-8.064 1.195-2.304 2.88-4.096 5.056-5.376 2.176-1.28 4.736-1.92 7.68-1.92 1.707 0 3.307.299 4.8.896 1.493.597 2.752 1.344 3.776 2.24 1.024.853 1.707 1.707 2.048 2.56l.128-4.928h6.592V429h-6.528l-.128-5.184c-.725 1.536-2.048 2.901-3.968 4.096-1.92 1.152-4.075 1.728-6.464 1.728Zm1.152-5.76c2.432 0 4.48-.832 6.144-2.496 1.664-1.707 2.496-3.925 2.496-6.656v-.448c0-1.835-.384-3.477-1.152-4.928-.768-1.451-1.813-2.581-3.136-3.392a8.167 8.167 0 0 0-4.352-1.216c-2.731 0-4.843.896-6.336 2.688-1.493 1.749-2.24 4.032-2.24 6.848 0 2.859.725 5.184 2.176 6.976 1.493 1.749 3.627 2.624 6.4 2.624Zm25.231-24.256h6.784l.064 5.376c.811-1.792 2.091-3.264 3.84-4.416 1.749-1.152 3.797-1.728 6.144-1.728 3.029 0 5.355.64 6.976 1.92 1.621 1.237 2.709 2.987 3.264 5.248.555 2.261.832 5.205.832 8.832V429h-6.912v-13.952c0-3.712-.363-6.379-1.088-8-.725-1.664-2.219-2.496-4.48-2.496-1.28 0-2.581.405-3.904 1.216-1.323.768-2.432 1.899-3.328 3.392-.853 1.493-1.28 3.243-1.28 5.248V429h-6.912v-29.376Zm37.325 0h7.168V429h-7.168v-29.376Zm3.52-5.504c-1.323 0-2.432-.448-3.328-1.344-.896-.896-1.344-2.005-1.344-3.328 0-1.195.448-2.219 1.344-3.072.896-.853 2.005-1.28 3.328-1.28 1.28 0 2.368.427 3.264 1.28.896.853 1.344 1.877 1.344 3.072 0 1.323-.448 2.432-1.344 3.328-.854.896-1.942 1.344-3.264 1.344Zm23.394 35.52c-4.054 0-6.848-1.195-8.384-3.584-1.494-2.389-2.24-5.717-2.24-9.984v-16.448h6.912v14.72c0 2.432.128 4.331.384 5.696.298 1.323.853 2.304 1.664 2.944.853.64 2.112.96 3.776.96 1.194 0 2.346-.341 3.456-1.024a7.918 7.918 0 0 0 2.688-2.752 7.388 7.388 0 0 0 1.088-3.904v-16.64h6.848V429h-5.632l-.768-4.288c-1.067 1.664-2.411 2.901-4.032 3.712-1.579.811-3.499 1.216-5.76 1.216Zm39.082 0c-2.901 0-5.525-.619-7.872-1.856-2.304-1.28-4.139-3.093-5.504-5.44-1.365-2.389-2.048-5.184-2.048-8.384 0-3.029.619-5.675 1.856-7.936 1.28-2.304 3.051-4.075 5.312-5.312 2.304-1.237 4.949-1.856 7.936-1.856 2.261 0 4.203.299 5.824.896 1.664.555 2.965 1.259 3.904 2.112l-3.072 5.568c-1.792-1.792-3.819-2.688-6.08-2.688-2.731 0-4.821.832-6.272 2.496-1.408 1.664-2.112 3.883-2.112 6.656 0 3.157.725 5.611 2.176 7.36 1.493 1.749 3.563 2.624 6.208 2.624 1.323 0 2.603-.192 3.84-.576 1.28-.384 2.261-.832 2.944-1.344l2.496 4.864c-.939.725-2.261 1.387-3.968 1.984-1.664.555-3.52.832-5.568.832Zm20.853 0c-1.28 0-2.368-.427-3.264-1.28-.896-.896-1.344-1.984-1.344-3.264 0-1.323.426-2.411 1.28-3.264.896-.896 2.005-1.344 3.328-1.344 1.322 0 2.41.448 3.264 1.344.896.853 1.344 1.941 1.344 3.264 0 1.28-.448 2.368-1.344 3.264-.854.853-1.942 1.28-3.264 1.28Zm25.631 0c-2.646 0-5.099-.619-7.36-1.856-2.219-1.28-4.011-3.072-5.376-5.376-1.323-2.347-1.984-5.077-1.984-8.192 0-4.651 1.301-8.363 3.904-11.136 2.602-2.816 6.122-4.224 10.56-4.224 2.474 0 4.736.619 6.784 1.856 2.048 1.195 3.434 2.645 4.16 4.352l-.32-4.992V381.96h6.784V429h-6.592l-.128-5.184c-.726 1.536-2.048 2.901-3.968 4.096-1.92 1.152-4.075 1.728-6.464 1.728Zm1.152-5.824c2.432 0 4.48-.832 6.144-2.496 1.664-1.707 2.496-3.925 2.496-6.656v-.448c0-1.835-.384-3.477-1.152-4.928-.768-1.451-1.814-2.581-3.136-3.392a8.17 8.17 0 0 0-4.352-1.216c-2.731 0-4.843.896-6.336 2.688-1.494 1.749-2.24 4.032-2.24 6.848 0 2.859.725 5.184 2.176 6.976 1.493 1.749 3.626 2.624 6.4 2.624Zm39.056 5.824c-3.499 0-6.421-.683-8.768-2.048-2.347-1.408-4.075-3.264-5.184-5.568-1.109-2.347-1.664-4.907-1.664-7.68 0-3.115.64-5.845 1.92-8.192 1.323-2.347 3.136-4.139 5.44-5.376 2.304-1.28 4.907-1.92 7.808-1.92 4.523 0 7.872 1.259 10.048 3.776 2.219 2.475 3.328 5.973 3.328 10.496 0 1.152-.064 2.347-.192 3.584h-21.12c.469 2.603 1.387 4.48 2.752 5.632 1.408 1.152 3.349 1.728 5.824 1.728 2.048 0 3.733-.171 5.056-.512a16.187 16.187 0 0 0 3.648-1.408l2.112 4.928c-1.067.683-2.517 1.28-4.352 1.792-1.835.512-4.053.768-6.656.768Zm6.208-17.728c.043-2.645-.533-4.501-1.728-5.568-1.195-1.109-2.901-1.664-5.12-1.664-4.48 0-7.061 2.411-7.744 7.232h14.592Zm24.079 17.728c-2.048 0-4.182-.256-6.4-.768-2.176-.555-3.734-1.195-4.672-1.92l2.304-5.44c2.56 1.792 5.482 2.688 8.768 2.688 3.285 0 4.928-.96 4.928-2.88 0-.853-.342-1.515-1.024-1.984-.683-.469-1.899-1.024-3.648-1.664l-2.432-.896c-2.56-1.024-4.587-2.24-6.08-3.648-1.494-1.451-2.24-3.349-2.24-5.696 0-2.688 1.045-4.779 3.136-6.272 2.133-1.536 4.97-2.304 8.512-2.304 1.749 0 3.456.192 5.12.576 1.706.384 3.008.875 3.904 1.472l-2.496 5.504c-.555-.555-1.451-1.024-2.688-1.408-1.195-.427-2.539-.64-4.032-.64-3.03 0-4.544.917-4.544 2.752 0 1.024.405 1.813 1.216 2.368.81.512 2.133 1.088 3.968 1.728.17.043.832.277 1.984.704 2.73 1.067 4.757 2.283 6.08 3.648 1.322 1.365 1.984 3.115 1.984 5.248 0 2.901-1.11 5.099-3.328 6.592-2.176 1.493-4.95 2.24-8.32 2.24Zm19.337-30.016h7.168V429h-7.168v-29.376Zm3.52-5.504c-1.323 0-2.432-.448-3.328-1.344-.896-.896-1.344-2.005-1.344-3.328 0-1.195.448-2.219 1.344-3.072.896-.853 2.005-1.28 3.328-1.28 1.28 0 2.368.427 3.264 1.28.896.853 1.344 1.877 1.344 3.072 0 1.323-.448 2.432-1.344 3.328-.853.896-1.941 1.344-3.264 1.344Zm27.49 50.24a23.88 23.88 0 0 1-6.464-.896c-2.091-.597-3.584-1.152-4.48-1.664l1.536-6.4c2.816 1.835 5.888 2.752 9.216 2.752 2.56 0 4.715-.619 6.464-1.856 1.749-1.237 2.645-3.648 2.688-7.232v-5.248c-.896 1.664-2.347 3.051-4.352 4.16-2.005 1.109-4.224 1.664-6.656 1.664-2.56 0-4.907-.619-7.04-1.856-2.133-1.28-3.819-3.093-5.056-5.44-1.237-2.347-1.856-5.077-1.856-8.192 0-2.987.576-5.632 1.728-7.936 1.195-2.347 2.88-4.16 5.056-5.44 2.176-1.28 4.715-1.92 7.616-1.92 1.707 0 3.307.299 4.8.896 1.493.597 2.752 1.344 3.776 2.24 1.067.853 1.771 1.707 2.112 2.56l.128-4.928h6.528v29.184c0 4.992-1.28 8.832-3.84 11.52-2.56 2.688-6.528 4.032-11.904 4.032Zm-.128-20.544c2.432 0 4.48-.832 6.144-2.496 1.664-1.707 2.496-3.925 2.496-6.656v-.448c0-1.835-.384-3.477-1.152-4.928-.768-1.451-1.813-2.581-3.136-3.392a8.167 8.167 0 0 0-4.352-1.216c-2.731 0-4.843.896-6.336 2.688-1.493 1.749-2.24 4.032-2.24 6.848 0 2.859.725 5.184 2.176 6.976 1.493 1.749 3.627 2.624 6.4 2.624Zm24.731-24.192h6.784l.064 5.376c.811-1.792 2.091-3.264 3.84-4.416 1.749-1.152 3.797-1.728 6.144-1.728 3.029 0 5.355.64 6.976 1.92 1.621 1.237 2.709 2.987 3.264 5.248.555 2.261.832 5.205.832 8.832V429h-6.912v-13.952c0-3.712-.363-6.379-1.088-8-.725-1.664-2.219-2.496-4.48-2.496-1.28 0-2.581.405-3.904 1.216-1.323.768-2.432 1.899-3.328 3.392-.853 1.493-1.28 3.243-1.28 5.248V429h-6.912v-29.376Z"/>
    <path id="m-green" fill="#489277" d="M95 0v320l39-.5v-252l153.5 89c14.8 9.2 17.5 24.833 17 31.5v34.5c0 26.8-4 36.833-6 38.5-13.2 21.6-50.833 24-68 22.5v-127l-39.5-22v185h13.5c13 .5 3.6 0 24 0S269 318 277 317c24-2.4 40-14.5 47-21 15-12.5 19-35.167 18.5-46v-47.5c.4-34.4-2.833-48.333-4.5-51-1.2-13.6-29.167-30-43-36.5l81.5-47v252H413V0L255 92.5 95 0Z"/>
  </g>
</svg>
